# Blender v2.80 (sub 39) OBJ File: ''
# www.blender.org
mtllib pointLight.mtl
o Icosphere
v -0.000000 -0.140347 -0.000000
v 0.101556 -0.062766 0.073784
v -0.038790 -0.062766 0.119386
v -0.125530 -0.062765 -0.000000
v -0.038790 -0.062766 -0.119386
v 0.101556 -0.062766 -0.073784
v 0.038790 0.062766 0.119386
v -0.101556 0.062766 0.073784
v -0.101556 0.062766 -0.073784
v 0.038790 0.062766 -0.119386
v 0.125530 0.062765 -0.000000
v -0.000000 0.140347 -0.000000
v -0.022800 -0.119386 0.070173
v 0.059693 -0.119386 0.043369
v 0.036893 -0.073785 0.113542
v 0.119386 -0.073785 -0.000000
v 0.059693 -0.119386 -0.043369
v -0.073784 -0.119386 -0.000000
v -0.096585 -0.073785 0.070173
v -0.022800 -0.119386 -0.070173
v -0.096585 -0.073785 -0.070173
v 0.036893 -0.073785 -0.113542
v 0.133478 -0.000000 0.043369
v 0.133478 -0.000000 -0.043369
v -0.000000 -0.000000 0.140347
v 0.082494 -0.000000 0.113543
v -0.133478 -0.000000 0.043369
v -0.082494 -0.000000 0.113543
v -0.082494 -0.000000 -0.113543
v -0.133478 -0.000000 -0.043369
v 0.082494 -0.000000 -0.113543
v -0.000000 -0.000000 -0.140347
v 0.096585 0.073785 0.070173
v -0.036893 0.073785 0.113542
v -0.119386 0.073785 -0.000000
v -0.036893 0.073785 -0.113542
v 0.096585 0.073785 -0.070173
v 0.022800 0.119386 0.070173
v 0.073784 0.119386 -0.000000
v -0.059693 0.119386 0.043369
v -0.059693 0.119386 -0.043369
v 0.022800 0.119386 -0.070173
v 0.035050 0.136084 0.025465
v -0.013388 0.136084 0.041204
v -0.043324 0.136085 -0.000000
v -0.013388 0.136084 -0.041204
v 0.035050 0.136084 -0.025465
v 0.013388 0.179409 0.041204
v -0.035050 0.179409 0.025465
v -0.035050 0.179409 -0.025465
v 0.013388 0.179409 -0.041204
v 0.043324 0.179409 -0.000000
v -0.000000 0.206185 -0.000000
v -0.007869 0.116543 0.024219
v 0.020602 0.116543 0.014968
v 0.012733 0.132281 0.039187
v 0.041204 0.132281 -0.000000
v 0.020602 0.116543 -0.014968
v -0.025465 0.116543 -0.000000
v -0.033334 0.132281 0.024219
v -0.007869 0.116543 -0.024219
v -0.033334 0.132281 -0.024219
v 0.012733 0.132281 -0.039187
v 0.046067 0.157747 0.014968
v 0.046067 0.157747 -0.014968
v -0.000000 0.157747 0.048438
v 0.028471 0.157747 0.039187
v -0.046067 0.157747 0.014968
v -0.028471 0.157747 0.039187
v -0.028471 0.157747 -0.039187
v -0.046067 0.157747 -0.014968
v 0.028471 0.157747 -0.039187
v -0.000000 0.157747 -0.048438
v 0.033334 0.183212 0.024219
v -0.012733 0.183212 0.039187
v -0.041204 0.183212 -0.000000
v -0.012733 0.183212 -0.039187
v 0.033334 0.183212 -0.024219
v 0.007869 0.198951 0.024219
v 0.025465 0.198951 -0.000000
v -0.020602 0.198951 0.014968
v -0.020602 0.198951 -0.014968
v 0.007869 0.198951 -0.024219
vt 0.818181 0.000000
vt 0.772726 0.078731
vt 0.863635 0.078731
vt 0.727272 0.157461
vt 0.681818 0.078731
vt 0.636363 0.157461
vt 0.090909 0.000000
vt 0.045454 0.078731
vt 0.136363 0.078731
vt 0.272727 0.000000
vt 0.227273 0.078731
vt 0.318182 0.078731
vt 0.454545 0.000000
vt 0.409090 0.078731
vt 0.500000 0.078731
vt 0.681818 0.236191
vt 0.909090 0.157461
vt 0.818181 0.157461
vt 0.863635 0.236191
vt 0.181818 0.157461
vt 0.090909 0.157461
vt 0.136363 0.236191
vt 0.363636 0.157461
vt 0.272727 0.157461
vt 0.318182 0.236191
vt 0.545454 0.157461
vt 0.454545 0.157461
vt 0.500000 0.236191
vt 0.772726 0.236191
vt 0.954545 0.236191
vt 0.227273 0.236191
vt 0.409090 0.236191
vt 0.590909 0.236191
vt 0.818181 0.314921
vt 0.727272 0.314921
vt 0.772726 0.393651
vt 1.000000 0.314921
vt 0.909091 0.314921
vt 0.954545 0.393651
vt 0.272727 0.314921
vt 0.181818 0.314921
vt 0.227273 0.393651
vt 0.454545 0.314921
vt 0.363636 0.314921
vt 0.409090 0.393651
vt 0.636363 0.314921
vt 0.545454 0.314921
vt 0.590909 0.393651
vt 0.500000 0.393651
vt 0.545454 0.472382
vt 0.318182 0.393651
vt 0.363636 0.472382
vt 0.136363 0.393651
vt 0.181818 0.472382
vt 0.090909 0.314921
vt 0.863635 0.393651
vt 0.909090 0.472382
vt 0.681818 0.393651
vt 0.727272 0.472382
vt 0.045454 0.236191
vt 0.000000 0.157461
vt 0.590909 0.078731
vt 0.636363 0.000000
vt 0.727272 0.157461
vt 0.681818 0.078731
vt 0.636363 0.157461
vt 0.681818 0.236191
vt 0.909090 0.157461
vt 0.818181 0.157461
vt 0.863635 0.236191
vt 0.181818 0.157461
vt 0.090909 0.157461
vt 0.136363 0.236191
vt 0.363636 0.157461
vt 0.272727 0.157461
vt 0.318182 0.236191
vt 0.545454 0.157461
vt 0.454545 0.157461
vt 0.500000 0.236191
vt 0.772726 0.236191
vt 0.954545 0.236191
vt 0.227273 0.236191
vt 0.409090 0.236191
vt 0.590909 0.236191
vt 0.818181 0.314921
vt 0.727272 0.314921
vt 0.772726 0.393651
vt 1.000000 0.314921
vt 0.909091 0.314921
vt 0.954545 0.393651
vt 0.272727 0.314921
vt 0.181818 0.314921
vt 0.227273 0.393651
vt 0.454545 0.314921
vt 0.363636 0.314921
vt 0.409090 0.393651
vt 0.636363 0.314921
vt 0.545454 0.314921
vt 0.590909 0.393651
vt 0.500000 0.393651
vt 0.545454 0.472382
vt 0.318182 0.393651
vt 0.363636 0.472382
vt 0.136363 0.393651
vt 0.181818 0.472382
vt 0.090909 0.314921
vt 0.863635 0.393651
vt 0.909090 0.472382
vt 0.681818 0.393651
vt 0.727272 0.472382
vt 0.045454 0.236191
vt 0.000000 0.157461
vt 0.500000 0.078731
vt 0.409090 0.078731
vt 0.318182 0.078731
vt 0.227273 0.078731
vt 0.136363 0.078731
vt 0.045454 0.078731
vt 0.590909 0.078731
vt 0.863635 0.078731
vt 0.772726 0.078731
vn 0.0000 -1.0000 0.0000
vn 0.4253 -0.8506 0.3090
vn -0.1625 -0.8506 0.5000
vn 0.7236 -0.4472 0.5257
vn 0.8506 -0.5257 0.0000
vn -0.5257 -0.8506 0.0000
vn -0.1625 -0.8506 -0.5000
vn 0.4253 -0.8506 -0.3090
vn 0.9510 0.0000 0.3090
vn -0.2764 -0.4472 0.8506
vn 0.2629 -0.5257 0.8090
vn 0.0000 0.0000 1.0000
vn -0.8944 -0.4472 0.0000
vn -0.6882 -0.5257 0.5000
vn -0.9510 0.0000 0.3090
vn -0.2764 -0.4472 -0.8506
vn -0.6882 -0.5257 -0.5000
vn -0.5878 0.0000 -0.8090
vn 0.7236 -0.4472 -0.5257
vn 0.2629 -0.5257 -0.8090
vn 0.5878 0.0000 -0.8090
vn 0.5878 0.0000 0.8090
vn -0.5878 0.0000 0.8090
vn -0.9510 0.0000 -0.3090
vn 0.0000 0.0000 -1.0000
vn 0.9510 0.0000 -0.3090
vn 0.2764 0.4472 0.8506
vn 0.6882 0.5257 0.5000
vn 0.1625 0.8506 0.5000
vn -0.7236 0.4472 0.5257
vn -0.2629 0.5257 0.8090
vn -0.4253 0.8506 0.3090
vn -0.7236 0.4472 -0.5257
vn -0.8506 0.5257 0.0000
vn -0.4253 0.8506 -0.3090
vn 0.2764 0.4472 -0.8506
vn -0.2629 0.5257 -0.8090
vn 0.1625 0.8506 -0.5000
vn 0.8944 0.4472 0.0000
vn 0.6882 0.5257 -0.5000
vn 0.5257 0.8506 0.0000
vn 0.0000 1.0000 0.0000
vn 0.5150 -0.7712 0.3741
vn 0.5150 -0.7712 -0.3741
vn -0.1967 -0.7712 -0.6054
vn -0.6365 -0.7712 0.0000
vn -0.1967 -0.7712 0.6054
usemtl None
s 1
f 1/1/1 14/2/2 13/3/3
f 2/4/4 14/5/2 16/6/5
f 1/7/1 13/8/3 18/9/6
f 1/10/1 18/11/6 20/12/7
f 1/13/1 20/14/7 17/15/8
f 2/4/4 16/6/5 23/16/9
f 3/17/10 15/18/11 25/19/12
f 4/20/13 19/21/14 27/22/15
f 5/23/16 21/24/17 29/25/18
f 6/26/19 22/27/20 31/28/21
f 2/4/4 23/16/9 26/29/22
f 3/17/10 25/19/12 28/30/23
f 4/20/13 27/22/15 30/31/24
f 5/23/16 29/25/18 32/32/25
f 6/26/19 31/28/21 24/33/26
f 7/34/27 33/35/28 38/36/29
f 8/37/30 34/38/31 40/39/32
f 9/40/33 35/41/34 41/42/35
f 10/43/36 36/44/37 42/45/38
f 11/46/39 37/47/40 39/48/41
f 39/48/41 42/49/38 12/50/42
f 39/48/41 37/47/40 42/49/38
f 37/47/40 10/43/36 42/49/38
f 42/45/38 41/51/35 12/52/42
f 42/45/38 36/44/37 41/51/35
f 36/44/37 9/40/33 41/51/35
f 41/42/35 40/53/32 12/54/42
f 41/42/35 35/41/34 40/53/32
f 35/41/34 8/55/30 40/53/32
f 40/39/32 38/56/29 12/57/42
f 40/39/32 34/38/31 38/56/29
f 34/38/31 7/34/27 38/56/29
f 38/36/29 39/58/41 12/59/42
f 38/36/29 33/35/28 39/58/41
f 33/35/28 11/46/39 39/58/41
f 24/33/26 37/47/40 11/46/39
f 24/33/26 31/28/21 37/47/40
f 31/28/21 10/43/36 37/47/40
f 32/32/25 36/44/37 10/43/36
f 32/32/25 29/25/18 36/44/37
f 29/25/18 9/40/33 36/44/37
f 30/31/24 35/41/34 9/40/33
f 30/31/24 27/22/15 35/41/34
f 27/22/15 8/55/30 35/41/34
f 28/30/23 34/38/31 8/37/30
f 28/30/23 25/19/12 34/38/31
f 25/19/12 7/34/27 34/38/31
f 26/29/22 33/35/28 7/34/27
f 26/29/22 23/16/9 33/35/28
f 23/16/9 11/46/39 33/35/28
f 31/28/21 32/32/25 10/43/36
f 31/28/21 22/27/20 32/32/25
f 22/27/20 5/23/16 32/32/25
f 29/25/18 30/31/24 9/40/33
f 29/25/18 21/24/17 30/31/24
f 21/24/17 4/20/13 30/31/24
f 27/22/15 28/60/23 8/55/30
f 27/22/15 19/21/14 28/60/23
f 19/21/14 3/61/10 28/60/23
f 25/19/12 26/29/22 7/34/27
f 25/19/12 15/18/11 26/29/22
f 15/18/11 2/4/4 26/29/22
f 23/16/9 24/33/26 11/46/39
f 23/16/9 16/6/5 24/33/26
f 16/6/5 6/26/19 24/33/26
f 17/15/8 22/27/20 6/26/19
f 17/15/8 20/14/7 22/27/20
f 20/14/7 5/23/16 22/27/20
f 20/12/7 21/24/17 5/23/16
f 20/12/7 18/11/6 21/24/17
f 18/11/6 4/20/13 21/24/17
f 18/9/6 19/21/14 4/20/13
f 18/9/6 13/8/3 19/21/14
f 13/8/3 3/61/10 19/21/14
f 16/6/5 17/62/8 6/26/19
f 16/6/5 14/5/2 17/62/8
f 14/5/2 1/63/1 17/62/8
f 13/3/3 15/18/11 3/17/10
f 13/3/3 14/2/2 15/18/11
f 14/2/2 2/4/4 15/18/11
f 43/64/4 55/65/43 57/66/5
f 43/64/4 57/66/5 64/67/9
f 44/68/10 56/69/11 66/70/12
f 45/71/13 60/72/14 68/73/15
f 46/74/16 62/75/17 70/76/18
f 47/77/19 63/78/20 72/79/21
f 43/64/4 64/67/9 67/80/22
f 44/68/10 66/70/12 69/81/23
f 45/71/13 68/73/15 71/82/24
f 46/74/16 70/76/18 73/83/25
f 47/77/19 72/79/21 65/84/26
f 48/85/27 74/86/28 79/87/29
f 49/88/30 75/89/31 81/90/32
f 50/91/33 76/92/34 82/93/35
f 51/94/36 77/95/37 83/96/38
f 52/97/39 78/98/40 80/99/41
f 80/99/41 83/100/38 53/101/42
f 80/99/41 78/98/40 83/100/38
f 78/98/40 51/94/36 83/100/38
f 83/96/38 82/102/35 53/103/42
f 83/96/38 77/95/37 82/102/35
f 77/95/37 50/91/33 82/102/35
f 82/93/35 81/104/32 53/105/42
f 82/93/35 76/92/34 81/104/32
f 76/92/34 49/106/30 81/104/32
f 81/90/32 79/107/29 53/108/42
f 81/90/32 75/89/31 79/107/29
f 75/89/31 48/85/27 79/107/29
f 79/87/29 80/109/41 53/110/42
f 79/87/29 74/86/28 80/109/41
f 74/86/28 52/97/39 80/109/41
f 65/84/26 78/98/40 52/97/39
f 65/84/26 72/79/21 78/98/40
f 72/79/21 51/94/36 78/98/40
f 73/83/25 77/95/37 51/94/36
f 73/83/25 70/76/18 77/95/37
f 70/76/18 50/91/33 77/95/37
f 71/82/24 76/92/34 50/91/33
f 71/82/24 68/73/15 76/92/34
f 68/73/15 49/106/30 76/92/34
f 69/81/23 75/89/31 49/88/30
f 69/81/23 66/70/12 75/89/31
f 66/70/12 48/85/27 75/89/31
f 67/80/22 74/86/28 48/85/27
f 67/80/22 64/67/9 74/86/28
f 64/67/9 52/97/39 74/86/28
f 72/79/21 73/83/25 51/94/36
f 72/79/21 63/78/20 73/83/25
f 63/78/20 46/74/16 73/83/25
f 70/76/18 71/82/24 50/91/33
f 70/76/18 62/75/17 71/82/24
f 62/75/17 45/71/13 71/82/24
f 68/73/15 69/111/23 49/106/30
f 68/73/15 60/72/14 69/111/23
f 60/72/14 44/112/10 69/111/23
f 66/70/12 67/80/22 48/85/27
f 66/70/12 56/69/11 67/80/22
f 56/69/11 43/64/4 67/80/22
f 64/67/9 65/84/26 52/97/39
f 64/67/9 57/66/5 65/84/26
f 57/66/5 47/77/19 65/84/26
f 58/113/44 63/78/20 47/77/19
f 58/113/44 61/114/45 63/78/20
f 61/114/45 46/74/16 63/78/20
f 61/115/45 62/75/17 46/74/16
f 61/115/45 59/116/46 62/75/17
f 59/116/46 45/71/13 62/75/17
f 59/117/46 60/72/14 45/71/13
f 59/117/46 54/118/47 60/72/14
f 54/118/47 44/112/10 60/72/14
f 57/66/5 58/119/44 47/77/19
f 57/66/5 55/65/43 58/119/44
f 54/120/47 56/69/11 44/68/10
f 54/120/47 55/121/43 56/69/11
f 55/121/43 43/64/4 56/69/11
